<?xml version="1.0" encoding="UTF-8"?>
<!DOCTYPE svg PUBLIC "-//W3C//DTD SVG 1.1//EN" "http://www.w3.org/Graphics/SVG/1.1/DTD/svg11.dtd">
<!-- Creator: CorelDRAW -->
<svg xmlns="http://www.w3.org/2000/svg" xml:space="preserve" width="570px" height="702px" style="shape-rendering:geometricPrecision; text-rendering:geometricPrecision; image-rendering:optimizeQuality; fill-rule:evenodd; clip-rule:evenodd"
viewBox="0 0 157.925 194.317"
 xmlns:xlink="http://www.w3.org/1999/xlink">
 <defs>
  <style type="text/css">
   <![CDATA[
    .fil2 {fill:#848688}
    .fil1 {fill:#8EC859}
    .fil0 {fill:#F8F8F8}
   ]]>
  </style>
 </defs>
 <g id="Layer_x0020_1">
  <metadata id="CorelCorpID_0Corel-Layer"/>
  <g id="_264160576">
   <path id="_262265544" class="fil0" d="M157.925 0l-157.925 0 0 109.466c24.9993,17.4511 45.9594,34.9016 64.0353,52.3531 46.138,-45.533 77.7504,-98.9804 93.8894,-161.819z"/>
   <path id="_263714744" class="fil1" d="M88.2284 194.128c-18.1612,0 -37.0308,0.189693 -55.1923,0.189693 9.89644,-6.25563 24.0469,-20.0712 30.5724,-27.1932 8.00833,8.1493 16.7437,17.4956 24.6199,27.0035z"/>
   <path id="_261642680" class="fil2" d="M27.9585 194.128c-9.31951,0 -18.639,0 -27.9585,0 0,-26.9185 0,-53.837 0,-80.7554 18.051,12.6938 39.3997,29.3573 61.2778,51.2208 -9.33259,9.45033 -16.7231,17.3978 -33.3193,29.5346z"/>
  </g>
 </g>
</svg>
